<svg xmlns="http://www.w3.org/2000/svg" xmlns:xlink="http://www.w3.org/1999/xlink" width="140" height="157" viewBox="0 0 140 157">
  <defs>
    <filter id="Rectangle_1021" x="0" y="0" width="140" height="140" filterUnits="userSpaceOnUse">
      <feOffset dy="3" input="SourceAlpha"/>
      <feGaussianBlur stdDeviation="3" result="blur"/>
      <feFlood flood-opacity="0.251"/>
      <feComposite operator="in" in2="blur"/>
      <feComposite in="SourceGraphic"/>
    </filter>
  </defs>
  <g id="Group_225" data-name="Group 225" transform="translate(10 7)">
    <g transform="matrix(1, 0, 0, 1, -10, -7)" filter="url(#Rectangle_1021)">
      <g id="Rectangle_1021-2" data-name="Rectangle 1021" transform="translate(10 7)" fill="#213758" stroke="#405b80" stroke-width="1">
        <rect width="120" height="120" rx="6" stroke="none"/>
        <rect x="-0.5" y="-0.5" width="121" height="121" rx="6.5" fill="none"/>
      </g>
    </g>
    <g id="world" transform="translate(25.115 21.052)">
      <path id="Path_104" data-name="Path 104" d="M78.231,33.468A29.881,29.881,0,0,0,72.417,42.2a4.446,4.446,0,0,1-8.243,0,32.664,32.664,0,0,0-6.884-9.9c-.635-.691-1.271-1.4-1.893-2.127l-.09.032a5.254,5.254,0,0,0-3.223,6.677c.781,1.826,6.249,1.48,5.781,5.413-.389,3.223,3.82,4.066,5.314,3.914s3.787,2.45,2.629,3.61-3.32,1.2-2.993,4.188c.09.868,2.719.757,2.719,2.072s-1.358,2.83-.311,4.356a3.545,3.545,0,0,0,.691.79,28.207,28.207,0,0,1-44.1-33.845,16.5,16.5,0,0,0,3.965,10.55c4.144,4.133,10.147,2.83,10.916,6.292s-4.121,3.454-3.8,6.1,6.716,3.352,5.3,5.793c-1.883,3.242,1.271,3.474.357,7.474-.49,2.183,2.662,2.606,3.831.946.891-1.271.714-2.83,2.507-4.734,2.194-2.339,7.285-2.717,6.716-6.583C50.637,46.805,44.4,45.8,41.68,44.3c-3.085-1.692-2.328-5.756-2.993-7.7-.935-2.751-4.11.769-5.8-.836-2.784-2.629.5-6.35,2.841-6.272,4.934.157,6.447,4.957,8.266,4.789,1.771-.157,2.919-2.629,3.223-3.944.656-2.862-1.114-1.582-1.826-3.074-.958-1.994,3.364-3.9,5.035-5.369a2.245,2.245,0,0,0,.546-.635c.5-.981-.157-1.727-1.271-2.406-2.229-1.347-6.292-2.418-6.484-4.522-.111-1.292,2.362-1.916,5.18-2.028.46.023.921.067,1.381.111A18.821,18.821,0,0,1,50.9,8.54a31.314,31.314,0,0,0-4.11-.267A32.2,32.2,0,1,0,79.01,40.482a31.562,31.562,0,0,0-.781-7.014ZM66.793.074a15.847,15.847,0,0,0-13.73,18.649c1.612,9.134,10.034,11.945,14.213,22.2a1.107,1.107,0,0,0,2.054,0C73.962,29.551,83.814,27.339,83.814,15.5A15.514,15.514,0,0,0,66.793.074ZM68.3,23.7a8.192,8.192,0,1,1,8.192-8.192A8.192,8.192,0,0,1,68.3,23.7Z" transform="translate(-14.604)" fill="#8fa7c7"/>
    </g>
    <text id="Map" transform="translate(60 145)" fill="#fff" font-size="22" font-family="Tahoma"><tspan x="-20.33" y="0">Map</tspan></text>
  </g>
</svg>
