<svg xmlns="http://www.w3.org/2000/svg" xmlns:xlink="http://www.w3.org/1999/xlink" width="140" height="157" viewBox="0 0 140 157">
  <defs>
    <filter id="Rectangle_1021" x="0" y="0" width="140" height="140" filterUnits="userSpaceOnUse">
      <feOffset dy="3" input="SourceAlpha"/>
      <feGaussianBlur stdDeviation="3" result="blur"/>
      <feFlood flood-opacity="0.251"/>
      <feComposite operator="in" in2="blur"/>
      <feComposite in="SourceGraphic"/>
    </filter>
    <filter id="Path_82" x="11" y="28" width="118" height="82.286" filterUnits="userSpaceOnUse">
      <feOffset dy="2" input="SourceAlpha"/>
      <feGaussianBlur stdDeviation="3" result="blur-2"/>
      <feFlood flood-opacity="0.161"/>
      <feComposite operator="in" in2="blur-2"/>
      <feComposite in="SourceGraphic"/>
    </filter>
  </defs>
  <g id="Overlay" transform="translate(10 7)">
    <g transform="matrix(1, 0, 0, 1, -10, -7)" filter="url(#Rectangle_1021)">
      <g id="Rectangle_1021-2" data-name="Rectangle 1021" transform="translate(10 7)" fill="#213758" stroke="#405b80" stroke-width="1">
        <rect width="120" height="120" rx="6" stroke="none"/>
        <rect x="-0.5" y="-0.5" width="121" height="121" rx="6.5" fill="none"/>
      </g>
    </g>
    <g transform="matrix(1, 0, 0, 1, -10, -7)" filter="url(#Path_82)">
      <path id="Path_82-2" data-name="Path 82" d="M85.488,38.068A27.615,27.615,0,0,0,58.041,11,28.975,28.975,0,0,0,34.488,23.411a13.9,13.9,0,0,0-7.626-2.26A13.666,13.666,0,0,0,13.069,34.684c0,.259.024.511.04.768-.017.308-.04.619-.04.924A21.636,21.636,0,0,0,1,55.247,20.292,20.292,0,0,0,21.422,75.286H63.676c.238,0,.469-.027.7-.036.236.008.467.036.705.036h16.9a18.751,18.751,0,0,0,3.5-37.218Z" transform="translate(19 24)" fill="#8fa7c7"/>
    </g>
    <text id="Overlays" transform="translate(19 145)" fill="#fff" font-size="22" font-family="Tahoma"><tspan x="0" y="0">Overlays</tspan></text>
  </g>
</svg>
