<svg xmlns="http://www.w3.org/2000/svg" xmlns:xlink="http://www.w3.org/1999/xlink" width="140" height="157" viewBox="0 0 140 157">
  <defs>
    <filter id="Rectangle_1021" x="0" y="0" width="140" height="140" filterUnits="userSpaceOnUse">
      <feOffset dy="3" input="SourceAlpha"/>
      <feGaussianBlur stdDeviation="3" result="blur"/>
      <feFlood flood-opacity="0.251"/>
      <feComposite operator="in" in2="blur"/>
      <feComposite in="SourceGraphic"/>
    </filter>
  </defs>
  <g id="Refresh" transform="translate(10 7)">
    <g transform="matrix(1, 0, 0, 1, -10, -7)" filter="url(#Rectangle_1021)">
      <g id="Rectangle_1021-2" data-name="Rectangle 1021" transform="translate(10 7)" fill="#213758" stroke="#405b80" stroke-width="1">
        <rect width="120" height="120" rx="6" stroke="none"/>
        <rect x="-0.5" y="-0.5" width="121" height="121" rx="6.5" fill="none"/>
      </g>
    </g>
    <g id="refresh-2" data-name="refresh" transform="translate(34.948 28.223)">
      <g id="Group_99" data-name="Group 99" transform="translate(0 0)">
        <path id="Path_54" data-name="Path 54" d="M54.8,34.4A24.537,24.537,0,0,1,78.869,7.03V.434a.473.473,0,0,1,.759-.34L93.2,10.067a.417.417,0,0,1,0,.667L79.641,20.707a.471.471,0,0,1-.759-.34V13.783A17.767,17.767,0,0,0,62.811,24.672a17.548,17.548,0,0,0,2.5,17.89,3.388,3.388,0,1,1-5.327,4.188A24.2,24.2,0,0,1,54.8,34.4ZM93.985,21.727a17.548,17.548,0,0,1,2.5,17.89A17.746,17.746,0,0,1,80.413,50.507V43.924a.473.473,0,0,0-.759-.34L66.083,53.556a.417.417,0,0,0,0,.667L79.641,64.2a.471.471,0,0,0,.759-.34v-6.6a24.537,24.537,0,0,0,24.068-27.366A24.074,24.074,0,0,0,99.3,17.539a3.383,3.383,0,1,0-5.313,4.188Z" transform="translate(-54.637 0)" fill="#8fa7c7"/>
      </g>
    </g>
    <text id="Refresh-3" data-name="Refresh" transform="translate(60 145)" fill="#fff" font-size="22" font-family="Tahoma"><tspan x="-36.916" y="0">Refresh</tspan></text>
  </g>
</svg>
