<svg xmlns="http://www.w3.org/2000/svg" xmlns:xlink="http://www.w3.org/1999/xlink" width="140" height="157" viewBox="0 0 140 157">
  <defs>
    <filter id="Rectangle_1021" x="0" y="0" width="140" height="140" filterUnits="userSpaceOnUse">
      <feOffset dy="3" input="SourceAlpha"/>
      <feGaussianBlur stdDeviation="3" result="blur"/>
      <feFlood flood-opacity="0.251"/>
      <feComposite operator="in" in2="blur"/>
      <feComposite in="SourceGraphic"/>
    </filter>
  </defs>
  <g id="Group_219" data-name="Group 219" transform="translate(-640 -51)">
    <g id="Rearrange" transform="translate(650 58)">
      <g transform="matrix(1, 0, 0, 1, -10, -7)" filter="url(#Rectangle_1021)">
        <g id="Rectangle_1021-2" data-name="Rectangle 1021" transform="translate(10 7)" fill="#213758" stroke="#405b80" stroke-width="1">
          <rect width="120" height="120" rx="6" stroke="none"/>
          <rect x="-0.5" y="-0.5" width="121" height="121" rx="6.5" fill="none"/>
        </g>
      </g>
      <text id="Reposition" transform="translate(60 145)" fill="#fff" font-size="22" font-family="Tahoma"><tspan x="-50.392" y="0">Reposition</tspan></text>
    </g>
    <g id="Group_218" data-name="Group 218">
      <g id="Rectangle_1127" data-name="Rectangle 1127" transform="translate(661 124)" fill="#213758" stroke="#8fa7c7" stroke-width="1">
        <rect width="29" height="25" rx="2" stroke="none"/>
        <rect x="0.5" y="0.5" width="28" height="24" rx="1.5" fill="none"/>
      </g>
      <g id="Rectangle_1131" data-name="Rectangle 1131" transform="translate(661 92)" fill="#213758" stroke="#8fa7c7" stroke-width="1">
        <rect width="29" height="25" rx="2" stroke="none"/>
        <rect x="0.5" y="0.5" width="28" height="24" rx="1.5" fill="none"/>
      </g>
      <g id="Rectangle_1133" data-name="Rectangle 1133" transform="translate(731 92)" fill="#213758" stroke="#8fa7c7" stroke-width="1">
        <rect width="29" height="25" rx="2" stroke="none"/>
        <rect x="0.5" y="0.5" width="28" height="24" rx="1.5" fill="none"/>
      </g>
      <g id="Rectangle_1132" data-name="Rectangle 1132" transform="translate(696 92)" fill="#8fa7c7" stroke="#8fa7c7" stroke-width="1">
        <rect width="29" height="25" rx="2" stroke="none"/>
        <rect x="0.5" y="0.5" width="28" height="24" rx="1.5" fill="none"/>
      </g>
      <g id="Rectangle_1129" data-name="Rectangle 1129" transform="translate(696 124)" fill="#213758" stroke="#8fa7c7" stroke-width="1">
        <rect width="29" height="25" rx="2" stroke="none"/>
        <rect x="0.5" y="0.5" width="28" height="24" rx="1.5" fill="none"/>
      </g>
      <g id="Rectangle_1130" data-name="Rectangle 1130" transform="translate(731 124)" fill="#213758" stroke="#8fa7c7" stroke-width="1">
        <rect width="29" height="25" rx="2" stroke="none"/>
        <rect x="0.5" y="0.5" width="28" height="24" rx="1.5" fill="none"/>
      </g>
    </g>
  </g>
</svg>
