<svg xmlns="http://www.w3.org/2000/svg" xmlns:xlink="http://www.w3.org/1999/xlink" width="414.972" height="104" viewBox="0 0 414.972 104">
  <defs>
    <style>
      .cls-1 {
        fill: #213758;
      }

      .cls-1, .cls-6 {
        stroke: #405b80;
      }

      .cls-2 {
        fill: #fff;
      }

      .cls-2, .cls-9 {
        font-size: 14px;
        font-family: Helvetica;
        letter-spacing: 0em;
      }

      .cls-3 {
        fill: #3caaef;
      }

      .cls-4 {
        fill: #f07f8b;
      }

      .cls-5 {
        fill: #9fc556;
      }

      .cls-6, .cls-7, .cls-8 {
        fill: none;
        stroke-linecap: round;
      }

      .cls-7 {
        stroke: #56c5bc;
      }

      .cls-7, .cls-8 {
        stroke-width: 4px;
      }

      .cls-8 {
        stroke: #8c7ff0;
      }

      .cls-9 {
        fill: #909bac;
      }

      .cls-10 {
        filter: url(#Union_8);
      }
    </style>
    <filter id="Union_8" x="0" y="0" width="414.972" height="104" filterUnits="userSpaceOnUse">
      <feOffset dy="3" input="SourceAlpha"/>
      <feGaussianBlur stdDeviation="3" result="blur"/>
      <feFlood flood-opacity="0.251"/>
      <feComposite operator="in" in2="blur"/>
      <feComposite in="SourceGraphic"/>
    </filter>
  </defs>
  <g id="Group_202" data-name="Group 202" transform="translate(-61.028 -659)">
    <g class="cls-10" transform="matrix(1, 0, 0, 1, 61.03, 659)">
      <path id="Union_8-2" data-name="Union 8" class="cls-1" d="M-4685-3229.5a6.5,6.5,0,0,1-6.5-6.5v-7.3l-9.5-5.7,9.5-5.7V-3308a6.5,6.5,0,0,1,6.5-6.5h373a6.5,6.5,0,0,1,6.5,6.5v72a6.5,6.5,0,0,1-6.5,6.5Z" transform="translate(4710.97 3321)"/>
    </g>
    <g id="Group_201" data-name="Group 201">
      <g id="Group_197" data-name="Group 197" transform="translate(13 -2)">
        <g id="Group_150" data-name="Group 150" transform="translate(2 15)">
          <text id="Node_not_reporting_Visualizer_data" data-name="Node not reporting Visualizer data" class="cls-2" transform="translate(98 690)"><tspan x="0" y="0">Node not reporting Visualizer data</tspan></text>
          <path id="Path_74" data-name="Path 74" class="cls-3" d="M7,0A7,7,0,1,1,0,7,7,7,0,0,1,7,0Z" transform="translate(78 678)"/>
        </g>
        <g id="Group_151" data-name="Group 151" transform="translate(2 33)">
          <text id="No_Tunnels_created" data-name="No Tunnels created" class="cls-2" transform="translate(98 690)"><tspan x="0" y="0">No Tunnels created</tspan></text>
          <path id="Path_74-2" data-name="Path 74" class="cls-4" d="M7,0A7,7,0,1,1,0,7,7,7,0,0,1,7,0Z" transform="translate(78 678)"/>
        </g>
        <g id="Group_152" data-name="Group 152" transform="translate(2 51)">
          <text id="Node_connected_to_overlay" data-name="Node connected to overlay" class="cls-2" transform="translate(98 690)"><tspan x="0" y="0">Node connected to overlay</tspan></text>
          <path id="Path_74-3" data-name="Path 74" class="cls-5" d="M7,0A7,7,0,1,1,0,7,7,7,0,0,1,7,0Z" transform="translate(78 678)"/>
        </g>
        <line id="Line_55" data-name="Line 55" class="cls-6" y1="72" transform="translate(312 674.5)"/>
        <g id="Group_155" data-name="Group 155" transform="translate(118 12)">
          <text id="Successor" class="cls-2" transform="translate(230 693)"><tspan x="0" y="0">Successor</tspan></text>
          <line id="Line_56" data-name="Line 56" class="cls-7" x1="17" transform="translate(206.5 688.5)"/>
        </g>
        <g id="Group_154" data-name="Group 154" transform="translate(118 8)">
          <text id="Long_Distance" data-name="Long Distance" class="cls-2" transform="translate(230 715)"><tspan x="0" y="0">Long Distance</tspan></text>
          <line id="Line_57" data-name="Line 57" class="cls-8" x1="17" transform="translate(206.5 710.5)"/>
        </g>
        <text id="Node" class="cls-9" transform="translate(80 685)"><tspan x="0" y="0">Node</tspan></text>
        <text id="Tunnels" class="cls-9" transform="translate(322 685)"><tspan x="0" y="0">Tunnels</tspan></text>
      </g>
    </g>
  </g>
</svg>
