<svg xmlns="http://www.w3.org/2000/svg" xmlns:xlink="http://www.w3.org/1999/xlink" width="68" height="68" viewBox="0 0 68 68">
  <defs>
    <filter id="Path_81" x="0" y="0" width="68" height="68" filterUnits="userSpaceOnUse">
      <feOffset dy="3" input="SourceAlpha"/>
      <feGaussianBlur stdDeviation="3" result="blur"/>
      <feFlood flood-opacity="0.251"/>
      <feComposite operator="in" in2="blur"/>
      <feComposite in="SourceGraphic"/>
    </filter>
  </defs>
  <g id="Group_210" data-name="Group 210" transform="translate(-122 -581)">
    <g transform="matrix(1, 0, 0, 1, 122, 581)" filter="url(#Path_81)">
      <g id="Path_81-2" data-name="Path 81" transform="translate(10 7)" fill="#213758">
        <path d="M 41.14286041259766 48.5 L 6.857141971588135 48.5 C 2.800401926040649 48.5 -0.4999980926513672 45.04580307006836 -0.4999980926513672 40.80001068115234 L -0.4999980926513672 1.9073486328125e-06 L -0.4999980926513672 -0.4999980926513672 L 1.9073486328125e-06 -0.4999980926513672 L 48 -0.4999980926513672 L 48.5 -0.4999980926513672 L 48.5 1.9073486328125e-06 L 48.5 40.80001068115234 C 48.5 45.04580307006836 45.19960021972656 48.5 41.14286041259766 48.5 Z" stroke="none"/>
        <path d="M 3.814697265625e-06 3.814697265625e-06 L 3.814697265625e-06 40.80000305175781 C 3.814697265625e-06 44.77645111083984 3.070041656494141 48 6.857143402099609 48 L 41.14286041259766 48 C 44.92995071411133 48 48 44.77645111083984 48 40.80000305175781 L 48 3.814697265625e-06 L 3.814697265625e-06 3.814697265625e-06 M -0.9999961853027344 -0.9999961853027344 L 3.814697265625e-06 -0.9999961853027344 L 48 -0.9999961853027344 L 49 -0.9999961853027344 L 49 3.814697265625e-06 L 49 40.80000305175781 C 49 45.32150268554688 45.47530364990234 49 41.14286041259766 49 L 6.857143402099609 49 C 2.524700164794922 49 -0.9999961853027344 45.32150268554688 -0.9999961853027344 40.80000305175781 L -0.9999961853027344 3.814697265625e-06 L -0.9999961853027344 -0.9999961853027344 Z" stroke="none" fill="#405b80"/>
      </g>
    </g>
    <g id="Group_209" data-name="Group 209" transform="translate(146 612)">
      <path id="Path_43" data-name="Path 43" d="M18.915,211.613H1.085a1.44,1.44,0,0,0,0,2.791H18.915a1.44,1.44,0,0,0,0-2.791Z" transform="translate(0 -211.613)" fill="#8fa7c7"/>
    </g>
  </g>
</svg>
