<svg xmlns="http://www.w3.org/2000/svg" xmlns:xlink="http://www.w3.org/1999/xlink" width="102" height="72" viewBox="0 0 102 72">
  <defs>
    <filter id="Path_48" x="0" y="0" width="102" height="72" filterUnits="userSpaceOnUse">
      <feOffset dy="2" input="SourceAlpha"/>
      <feGaussianBlur stdDeviation="3" result="blur"/>
      <feFlood flood-opacity="0.161"/>
      <feComposite operator="in" in2="blur"/>
      <feComposite in="SourceGraphic"/>
    </filter>
  </defs>
  <g transform="matrix(1, 0, 0, 1, 0, 0)" filter="url(#Path_48)">
    <path id="Path_48-2" data-name="Path 48" d="M71.97,33.737A23.2,23.2,0,0,0,48.915,11,24.339,24.339,0,0,0,29.13,21.425a11.678,11.678,0,0,0-6.406-1.9A11.479,11.479,0,0,0,11.138,30.895c0,.217.02.429.033.645-.014.259-.033.52-.033.776A18.174,18.174,0,0,0,1,48.168,17.045,17.045,0,0,0,18.155,65H53.648c.2,0,.394-.023.591-.03s.392.03.592.03h14.2A15.751,15.751,0,0,0,71.97,33.737Z" transform="translate(8 -4)" fill="#56c5bc"/>
  </g>
</svg>
