<svg xmlns="http://www.w3.org/2000/svg" xmlns:xlink="http://www.w3.org/1999/xlink" width="68" height="68" viewBox="0 0 68 68">
  <defs>
    <filter id="Rectangle_1012" x="0" y="0" width="68" height="68" filterUnits="userSpaceOnUse">
      <feOffset dy="3" input="SourceAlpha"/>
      <feGaussianBlur stdDeviation="3" result="blur"/>
      <feFlood flood-opacity="0.251"/>
      <feComposite operator="in" in2="blur"/>
      <feComposite in="SourceGraphic"/>
    </filter>
  </defs>
  <g id="Group_208" data-name="Group 208" transform="translate(10 7)">
    <g id="Group_207" data-name="Group 207">
      <g transform="matrix(1, 0, 0, 1, -10, -7)" filter="url(#Rectangle_1012)">
        <g id="Rectangle_1012-2" data-name="Rectangle 1012" transform="translate(10 7)" fill="#213758" stroke="#405b80" stroke-width="1">
          <path d="M6,0H42a6,6,0,0,1,6,6V48a0,0,0,0,1,0,0H0a0,0,0,0,1,0,0V6A6,6,0,0,1,6,0Z" stroke="none"/>
          <path d="M6-.5H42A6.5,6.5,0,0,1,48.5,6V48a.5.5,0,0,1-.5.5H0A.5.5,0,0,1-.5,48V6A6.5,6.5,0,0,1,6-.5Z" fill="none"/>
        </g>
      </g>
    </g>
    <g id="add" transform="translate(14 14.391)">
      <g id="Group_56" data-name="Group 56">
        <path id="Path_42" data-name="Path 42" d="M18.915,8.606H11.4V1.086A1.349,1.349,0,0,0,10,0,1.349,1.349,0,0,0,8.6,1.086V8.606H1.085A1.349,1.349,0,0,0,0,10a1.349,1.349,0,0,0,1.085,1.4H8.6v7.519A1.349,1.349,0,0,0,10,20a1.349,1.349,0,0,0,1.4-1.085V11.4h7.519A1.349,1.349,0,0,0,20,10,1.349,1.349,0,0,0,18.915,8.606Z" transform="translate(0 -0.001)" fill="#8fa7c7"/>
      </g>
    </g>
  </g>
</svg>
